# This file uses centimeters as units for non-parametric coordinates.

mtllib cylinder.mtl
g default
v 1.263429 0.446714 -0.073263
v 1.054660 0.446714 -0.347151
v 0.729495 0.446714 -0.564508
v 0.319762 0.446714 -0.704061
v -0.134430 0.446714 -0.752147
v -0.588622 0.446714 -0.704061
v -0.998354 0.446714 -0.564508
v -1.323520 0.446714 -0.347150
v -1.532289 0.446714 -0.073263
v -1.604226 0.446714 0.230343
v -1.532289 0.446714 0.533949
v -1.323520 0.446714 0.807836
v -0.998354 0.446714 1.025193
v -0.588622 0.446714 1.164746
v -0.134430 0.446714 1.212832
v 0.319762 0.446714 1.164746
v 0.729494 0.446714 1.025193
v 1.754909 0.368699 0.896240
v 1.963678 0.368699 0.622353
v 1.335365 0.446714 0.230343
v 1.263429 3.257099 -0.073263
v 1.054660 3.257099 -0.347151
v 0.729495 3.257099 -0.564508
v 0.319762 3.257099 -0.704061
v -0.134430 3.257099 -0.752147
v -0.588622 3.257099 -0.704061
v -0.998354 3.257099 -0.564508
v -1.323520 3.257099 -0.347150
v -1.532289 3.257099 -0.073263
v -1.604226 3.257099 0.230343
v -1.532289 3.257099 0.533949
v -1.323520 3.257099 0.807836
v -0.998354 3.257099 1.025193
v -0.588622 3.257099 1.164746
v -0.134430 3.257099 1.212832
v 0.319762 3.257099 1.164746
v 0.729494 3.257099 1.025193
v 1.754909 3.179084 0.896240
v 1.963678 3.179084 0.622353
v 1.335365 3.257099 0.230343
v -0.134430 0.446714 0.230343
v -0.134430 3.257099 0.230343
vt 0.648603 0.107966
vt 0.626409 0.064408
vt 0.591842 0.029841
vt 0.548284 0.007647
vt 0.500000 -0.000000
vt 0.451716 0.007647
vt 0.408159 0.029841
vt 0.373591 0.064409
vt 0.351397 0.107966
vt 0.343750 0.156250
vt 0.351397 0.204534
vt 0.373591 0.248091
vt 0.408159 0.282659
vt 0.451716 0.304853
vt 0.500000 0.312500
vt 0.548284 0.304853
vt 0.591841 0.282659
vt 0.626409 0.248091
vt 0.648603 0.204534
vt 0.656250 0.156250
vt 0.375000 0.312500
vt 0.387500 0.312500
vt 0.400000 0.312500
vt 0.412500 0.312500
vt 0.425000 0.312500
vt 0.437500 0.312500
vt 0.450000 0.312500
vt 0.462500 0.312500
vt 0.475000 0.312500
vt 0.487500 0.312500
vt 0.500000 0.312500
vt 0.512500 0.312500
vt 0.525000 0.312500
vt 0.537500 0.312500
vt 0.550000 0.312500
vt 0.562500 0.312500
vt 0.575000 0.312500
vt 0.587500 0.312500
vt 0.600000 0.312500
vt 0.612500 0.312500
vt 0.625000 0.312500
vt 0.375000 0.688440
vt 0.387500 0.688440
vt 0.400000 0.688440
vt 0.412500 0.688440
vt 0.425000 0.688440
vt 0.437500 0.688440
vt 0.450000 0.688440
vt 0.462500 0.688440
vt 0.475000 0.688440
vt 0.487500 0.688440
vt 0.500000 0.688440
vt 0.512500 0.688440
vt 0.525000 0.688440
vt 0.537500 0.688440
vt 0.550000 0.688440
vt 0.562500 0.688440
vt 0.575000 0.688440
vt 0.587500 0.688440
vt 0.600000 0.688440
vt 0.612500 0.688440
vt 0.625000 0.688440
vt 0.648603 0.795466
vt 0.626409 0.751908
vt 0.591842 0.717341
vt 0.548284 0.695147
vt 0.500000 0.687500
vt 0.451716 0.695147
vt 0.408159 0.717341
vt 0.373591 0.751909
vt 0.351397 0.795466
vt 0.343750 0.843750
vt 0.351397 0.892034
vt 0.373591 0.935591
vt 0.408159 0.970159
vt 0.451716 0.992353
vt 0.500000 1.000000
vt 0.548284 0.992353
vt 0.591841 0.970159
vt 0.626409 0.935591
vt 0.648603 0.892034
vt 0.656250 0.843750
vt 0.500000 0.150000
vt 0.500000 0.837500
vn 0.928403 0.000000 -0.371574
vn 0.717545 0.000000 -0.696512
vn 0.866937 0.000000 -0.498418
vn 0.636300 0.000000 -0.771442
vn 0.476326 0.000000 -0.879269
vn 0.397915 0.000000 -0.917422
vn 0.248812 0.000000 -0.968552
vn 0.176042 0.000000 -0.984383
vn 0.035269 0.000000 -0.999378
vn -0.035269 0.000000 -0.999378
vn -0.176042 0.000000 -0.984383
vn -0.248813 0.000000 -0.968552
vn -0.397915 0.000000 -0.917422
vn -0.476326 0.000000 -0.879268
vn -0.636300 0.000000 -0.771441
vn -0.717545 0.000000 -0.696512
vn -0.866936 0.000000 -0.498419
vn -0.928403 0.000000 -0.371575
vn -0.996896 0.000000 -0.078735
vn -0.996896 0.000000 0.078735
vn -0.928403 0.000000 0.371575
vn -0.866936 0.000000 0.498419
vn -0.717545 0.000000 0.696512
vn -0.636300 0.000000 0.771442
vn -0.476326 0.000000 0.879269
vn -0.397915 0.000000 0.917422
vn -0.248812 0.000000 0.968552
vn -0.176042 0.000000 0.984383
vn -0.035269 0.000000 0.999378
vn 0.035269 0.000000 0.999378
vn 0.176042 0.000000 0.984383
vn 0.248812 0.000000 0.968552
vn 0.222217 0.000000 0.974997
vn 0.222217 0.000000 0.974997
vn 0.447617 0.000000 0.894225
vn 0.447617 0.000000 0.894225
vn 0.994281 0.000000 0.106796
vn 0.831314 0.000000 -0.555804
vn 0.696822 0.000000 -0.717245
vn 0.862172 0.000000 -0.506616
vn 0.000000 -1.000000 0.000000
vn 0.000000 -1.000000 0.000000
vn -0.004953 -0.999960 -0.007398
vn 0.000000 -1.000000 -0.000000
vn 0.000000 -1.000000 0.000000
vn 0.000000 -1.000000 0.000000
vn 0.000000 -1.000000 0.000000
vn 0.000000 -1.000000 0.000000
vn 0.000000 -1.000000 0.000000
vn 0.000000 -1.000000 0.000000
vn 0.000000 -1.000000 0.000000
vn 0.000000 -1.000000 -0.000000
vn 0.000000 -1.000000 -0.000000
vn 0.000000 -1.000000 -0.000000
vn 0.000000 -1.000000 0.000000
vn 0.000000 -1.000000 0.000000
vn 0.000000 -1.000000 0.000000
vn -0.033299 -0.998790 0.036193
vn -0.049613 -0.998485 0.023784
vn -0.016317 -0.993749 -0.110436
vn 0.000000 -0.995180 -0.098065
vn 0.000000 1.000000 0.000000
vn 0.000000 1.000000 -0.000000
vn 0.004953 0.999960 0.007398
vn 0.000000 1.000000 -0.000000
vn 0.000000 1.000000 0.000000
vn 0.000000 1.000000 0.000000
vn 0.000000 1.000000 0.000000
vn 0.000000 1.000000 -0.000000
vn 0.000000 1.000000 -0.000000
vn 0.000000 1.000000 0.000000
vn 0.000000 1.000000 0.000000
vn 0.000000 1.000000 -0.000000
vn 0.000000 1.000000 0.000000
vn 0.000000 1.000000 0.000000
vn 0.000000 1.000000 0.000000
vn 0.000000 1.000000 0.000000
vn 0.000000 1.000000 0.000000
vn 0.033299 0.998790 -0.036193
vn 0.049613 0.998485 -0.023785
vn 0.016317 0.993749 0.110436
vn 0.000000 0.995180 0.098065
s 1
g pCylinder1
usemtl lambert2SG
f 1/21/1 2/22/2 21/42/3
f 21/42/3 2/22/2 22/43/4
f 2/22/2 3/23/5 22/43/4
f 22/43/4 3/23/5 23/44/6
f 3/23/5 4/24/7 23/44/6
f 23/44/6 4/24/7 24/45/8
f 4/24/7 5/25/9 24/45/8
f 24/45/8 5/25/9 25/46/10
f 5/25/9 6/26/11 25/46/10
f 25/46/10 6/26/11 26/47/12
f 6/26/11 7/27/13 26/47/12
f 26/47/12 7/27/13 27/48/14
f 7/27/13 8/28/15 27/48/14
f 27/48/14 8/28/15 28/49/16
f 8/28/15 9/29/17 28/49/16
f 28/49/16 9/29/17 29/50/18
f 9/29/17 10/30/19 29/50/18
f 29/50/18 10/30/19 30/51/20
f 10/30/19 11/31/21 30/51/20
f 30/51/20 11/31/21 31/52/22
f 11/31/21 12/32/23 31/52/22
f 31/52/22 12/32/23 32/53/24
f 12/32/23 13/33/25 32/53/24
f 32/53/24 13/33/25 33/54/26
f 13/33/25 14/34/27 33/54/26
f 33/54/26 14/34/27 34/55/28
f 14/34/27 15/35/29 34/55/28
f 34/55/28 15/35/29 35/56/30
f 15/35/29 16/36/31 35/56/30
f 35/56/30 16/36/31 36/57/32
f 16/36/31 17/37/33 36/57/32
f 36/57/32 17/37/33 37/58/34
f 18/38/35 38/59/36 17/37/33
f 17/37/33 38/59/36 37/58/34
f 18/38/35 19/39/37 38/59/36
f 38/59/36 19/39/37 39/60/38
f 19/39/37 20/40/39 39/60/38
f 39/60/38 20/40/39 40/61/40
f 20/40/39 1/41/1 40/61/40
f 40/61/40 1/41/1 21/62/3
s 2
f 2/2/41 1/1/42 41/83/43
f 3/3/44 2/2/41 41/83/43
f 4/4/45 3/3/44 41/83/43
f 5/5/46 4/4/45 41/83/43
f 6/6/47 5/5/46 41/83/43
f 7/7/48 6/6/47 41/83/43
f 8/8/49 7/7/48 41/83/43
f 9/9/50 8/8/49 41/83/43
f 10/10/51 9/9/50 41/83/43
f 11/11/52 10/10/51 41/83/43
f 12/12/53 11/11/52 41/83/43
f 13/13/54 12/12/53 41/83/43
f 14/14/55 13/13/54 41/83/43
f 15/15/56 14/14/55 41/83/43
f 16/16/57 15/15/56 41/83/43
f 17/17/58 16/16/57 41/83/43
f 18/18/59 17/17/58 41/83/43
f 19/19/60 18/18/59 41/83/43
f 20/20/61 19/19/60 41/83/43
f 1/1/42 20/20/61 41/83/43
s 3
f 21/81/62 22/80/63 42/84/64
f 22/80/63 23/79/65 42/84/64
f 23/79/65 24/78/66 42/84/64
f 24/78/66 25/77/67 42/84/64
f 25/77/67 26/76/68 42/84/64
f 26/76/68 27/75/69 42/84/64
f 27/75/69 28/74/70 42/84/64
f 28/74/70 29/73/71 42/84/64
f 29/73/71 30/72/72 42/84/64
f 30/72/72 31/71/73 42/84/64
f 31/71/73 32/70/74 42/84/64
f 32/70/74 33/69/75 42/84/64
f 33/69/75 34/68/76 42/84/64
f 34/68/76 35/67/77 42/84/64
f 35/67/77 36/66/78 42/84/64
f 36/66/78 37/65/79 42/84/64
f 37/65/79 38/64/80 42/84/64
f 38/64/80 39/63/81 42/84/64
f 39/63/81 40/82/82 42/84/64
f 40/82/82 21/81/62 42/84/64
